<svg width="210" height="210" viewBox="0 0 210 210" fill="none" xmlns="http://www.w3.org/2000/svg">
<circle cx="105" cy="105" r="105" fill="#FF9C00"/>
<circle cx="105.001" cy="105" r="72.9518" fill="white"/>
<path d="M81.7795 95.5696V113.024H79.1375V98.2116H79.0352L74.8591 100.939V98.4162L79.2142 95.5696H81.7795ZM92.5778 113.314C91.2312 113.308 90.0807 112.953 89.1261 112.249C88.1716 111.544 87.4415 110.518 86.9358 109.172C86.4301 107.825 86.1773 106.203 86.1773 104.305C86.1773 102.413 86.4301 100.797 86.9358 99.4559C87.4471 98.115 88.1801 97.0923 89.1346 96.3877C90.0949 95.6832 91.2426 95.3309 92.5778 95.3309C93.9131 95.3309 95.0579 95.686 96.0125 96.3963C96.967 97.1008 97.6971 98.1235 98.2028 99.4644C98.7142 100.8 98.9699 102.413 98.9699 104.305C98.9699 106.209 98.717 107.834 98.2114 109.18C97.7057 110.521 96.9756 111.547 96.021 112.257C95.0665 112.962 93.9187 113.314 92.5778 113.314ZM92.5778 111.038C93.7596 111.038 94.6829 110.462 95.3477 109.308C96.0182 108.155 96.3534 106.487 96.3534 104.305C96.3534 102.856 96.2 101.632 95.8932 100.632C95.592 99.6264 95.1574 98.865 94.5892 98.348C94.0267 97.8252 93.3562 97.5639 92.5778 97.5639C91.4017 97.5639 90.4784 98.1434 89.8079 99.3025C89.1375 100.462 88.7994 102.129 88.7937 104.305C88.7937 105.76 88.9443 106.99 89.2454 107.996C89.5523 108.996 89.9869 109.754 90.5494 110.271C91.1119 110.783 91.7881 111.038 92.5778 111.038ZM108.07 113.314C106.723 113.308 105.573 112.953 104.618 112.249C103.664 111.544 102.934 110.518 102.428 109.172C101.922 107.825 101.669 106.203 101.669 104.305C101.669 102.413 101.922 100.797 102.428 99.4559C102.939 98.115 103.672 97.0923 104.627 96.3877C105.587 95.6832 106.735 95.3309 108.07 95.3309C109.405 95.3309 110.55 95.686 111.505 96.3963C112.459 97.1008 113.189 98.1235 113.695 99.4644C114.206 100.8 114.462 102.413 114.462 104.305C114.462 106.209 114.209 107.834 113.704 109.18C113.198 110.521 112.468 111.547 111.513 112.257C110.559 112.962 109.411 113.314 108.07 113.314ZM108.07 111.038C109.252 111.038 110.175 110.462 110.84 109.308C111.51 108.155 111.846 106.487 111.846 104.305C111.846 102.856 111.692 101.632 111.385 100.632C111.084 99.6264 110.65 98.865 110.081 98.348C109.519 97.8252 108.848 97.5639 108.07 97.5639C106.894 97.5639 105.971 98.1434 105.3 99.3025C104.63 100.462 104.292 102.129 104.286 104.305C104.286 105.76 104.436 106.99 104.738 107.996C105.044 108.996 105.479 109.754 106.042 110.271C106.604 110.783 107.28 111.038 108.07 111.038ZM126.596 109.751V108.831C126.596 108.172 126.733 107.57 127.005 107.024C127.284 106.473 127.687 106.033 128.216 105.703C128.75 105.368 129.395 105.2 130.15 105.2C130.923 105.2 131.571 105.365 132.093 105.695C132.616 106.024 133.011 106.464 133.278 107.016C133.551 107.567 133.687 108.172 133.687 108.831V109.751C133.687 110.41 133.551 111.016 133.278 111.567C133.005 112.112 132.605 112.553 132.076 112.888C131.554 113.217 130.912 113.382 130.15 113.382C129.383 113.382 128.736 113.217 128.207 112.888C127.679 112.553 127.278 112.112 127.005 111.567C126.733 111.016 126.596 110.41 126.596 109.751ZM128.582 108.831V109.751C128.582 110.24 128.699 110.683 128.932 111.081C129.164 111.479 129.571 111.678 130.15 111.678C130.724 111.678 131.125 111.479 131.352 111.081C131.579 110.683 131.693 110.24 131.693 109.751V108.831C131.693 108.342 131.582 107.899 131.361 107.501C131.145 107.104 130.741 106.905 130.15 106.905C129.582 106.905 129.179 107.104 128.94 107.501C128.701 107.899 128.582 108.342 128.582 108.831ZM117.818 99.7627V98.8423C117.818 98.1832 117.954 97.5781 118.227 97.0269C118.505 96.4758 118.909 96.0355 119.437 95.7059C119.971 95.3764 120.616 95.2116 121.372 95.2116C122.145 95.2116 122.792 95.3764 123.315 95.7059C123.838 96.0355 124.233 96.4758 124.5 97.0269C124.767 97.5781 124.9 98.1832 124.9 98.8423V99.7627C124.9 100.422 124.764 101.027 124.491 101.578C124.224 102.124 123.826 102.564 123.298 102.899C122.775 103.229 122.133 103.393 121.372 103.393C120.599 103.393 119.949 103.229 119.42 102.899C118.897 102.564 118.5 102.124 118.227 101.578C117.954 101.027 117.818 100.422 117.818 99.7627ZM119.812 98.8423V99.7627C119.812 100.251 119.926 100.695 120.153 101.092C120.386 101.49 120.792 101.689 121.372 101.689C121.94 101.689 122.338 101.49 122.565 101.092C122.798 100.695 122.914 100.251 122.914 99.7627V98.8423C122.914 98.3537 122.804 97.9105 122.582 97.5127C122.36 97.115 121.957 96.9162 121.372 96.9162C120.804 96.9162 120.4 97.115 120.162 97.5127C119.929 97.9105 119.812 98.3537 119.812 98.8423ZM118.628 113.024L130.628 95.5696H132.664L120.664 113.024H118.628Z" fill="black"/>
</svg>
