<svg width="209" height="65" viewBox="0 0 209 65" fill="none" xmlns="http://www.w3.org/2000/svg">
<g filter="url(#filter0_d_62_2413)">
<rect width="178" height="65" fill="#4452FE"/>
<path d="M43.825 38V27.63H40.442V25.845H49.486V27.63H46.103V38H43.825ZM50.7375 38V29.109H52.7945V30.775C53.3838 29.585 54.3471 28.9843 55.6845 28.973V30.894C54.7211 30.9053 53.9958 31.098 53.5085 31.472C53.0325 31.846 52.7945 32.4807 52.7945 33.376V38H50.7375ZM58.7633 41.043L60.3783 37.099L56.8593 29.109H59.0863L61.4493 34.838L63.6253 29.109H65.6313L60.7863 41.043H58.7633ZM71.7946 38V25.845H79.3256V27.647H74.0556V31.268H78.2036V33.019H74.0556V38H71.7946ZM84.867 36.572C85.6264 36.572 86.2214 36.3113 86.652 35.79C87.094 35.2573 87.315 34.532 87.315 33.614V33.495C87.315 32.577 87.094 31.8573 86.652 31.336C86.2214 30.8033 85.6264 30.537 84.867 30.537C84.0964 30.537 83.49 30.7977 83.048 31.319C82.6174 31.8403 82.402 32.56 82.402 33.478V33.614C82.402 34.532 82.6174 35.2573 83.048 35.79C83.49 36.3113 84.0964 36.572 84.867 36.572ZM88.131 36.912C87.2697 37.7507 86.176 38.17 84.85 38.17C83.524 38.17 82.4304 37.7507 81.569 36.912C80.719 36.0733 80.294 34.9853 80.294 33.648V33.512C80.294 32.152 80.7247 31.047 81.586 30.197C82.4474 29.347 83.541 28.922 84.867 28.922C86.1817 28.922 87.2697 29.3413 88.131 30.18C88.9924 31.0187 89.423 32.1123 89.423 33.461V33.597C89.423 34.9683 88.9924 36.0733 88.131 36.912ZM91.4816 38V29.109H93.5386V30.775C94.128 29.585 95.0913 28.9843 96.4286 28.973V30.894C95.4653 30.9053 94.74 31.098 94.2526 31.472C93.7766 31.846 93.5386 32.4807 93.5386 33.376V38H91.4816ZM102.859 38V25.845H110.39V27.647H105.12V31.268H109.268V33.019H105.12V38H102.859ZM112.053 38V29.109H114.11V30.775C114.7 29.585 115.663 28.9843 117 28.973V30.894C116.037 30.9053 115.312 31.098 114.824 31.472C114.348 31.846 114.11 32.4807 114.11 33.376V38H112.053ZM122.754 38.17C121.428 38.17 120.346 37.762 119.507 36.946C118.668 36.13 118.249 35.0307 118.249 33.648V33.512C118.249 32.152 118.663 31.047 119.49 30.197C120.329 29.347 121.388 28.922 122.669 28.922C123.87 28.922 124.868 29.296 125.661 30.044C126.466 30.792 126.868 31.914 126.868 33.41V34.005H120.357C120.391 34.855 120.618 35.5067 121.037 35.96C121.456 36.4133 122.046 36.64 122.805 36.64C124.006 36.64 124.686 36.1867 124.845 35.28H126.834C126.687 36.2093 126.256 36.9233 125.542 37.422C124.828 37.9207 123.899 38.17 122.754 38.17ZM120.391 32.628H124.828C124.726 31.1547 124.006 30.418 122.669 30.418C122.057 30.418 121.547 30.6163 121.139 31.013C120.742 31.3983 120.493 31.9367 120.391 32.628ZM132.815 38.17C131.489 38.17 130.407 37.762 129.568 36.946C128.73 36.13 128.31 35.0307 128.31 33.648V33.512C128.31 32.152 128.724 31.047 129.551 30.197C130.39 29.347 131.45 28.922 132.73 28.922C133.932 28.922 134.929 29.296 135.722 30.044C136.527 30.792 136.929 31.914 136.929 33.41V34.005H130.418C130.452 34.855 130.679 35.5067 131.098 35.96C131.518 36.4133 132.107 36.64 132.866 36.64C134.068 36.64 134.748 36.1867 134.906 35.28H136.895C136.748 36.2093 136.317 36.9233 135.603 37.422C134.889 37.9207 133.96 38.17 132.815 38.17ZM130.452 32.628H134.889C134.787 31.1547 134.068 30.418 132.73 30.418C132.118 30.418 131.608 30.6163 131.2 31.013C130.804 31.3983 130.554 31.9367 130.452 32.628Z" fill="white"/>
</g>
<defs>
<filter id="filter0_d_62_2413" x="-31" y="-27" width="240" height="127" filterUnits="userSpaceOnUse" color-interpolation-filters="sRGB">
<feFlood flood-opacity="0" result="BackgroundImageFix"/>
<feColorMatrix in="SourceAlpha" type="matrix" values="0 0 0 0 0 0 0 0 0 0 0 0 0 0 0 0 0 0 127 0" result="hardAlpha"/>
<feOffset dy="4"/>
<feGaussianBlur stdDeviation="15.5"/>
<feColorMatrix type="matrix" values="0 0 0 0 0 0 0 0 0 0 0 0 0 0 0 0 0 0 0.15 0"/>
<feBlend mode="normal" in2="BackgroundImageFix" result="effect1_dropShadow_62_2413"/>
<feBlend mode="normal" in="SourceGraphic" in2="effect1_dropShadow_62_2413" result="shape"/>
</filter>
</defs>
</svg>
